<svg xmlns="http://www.w3.org/2000/svg" viewBox="0 0 197.357 51.938"><path d="M.459,0H11.207V20.775h.2a14.059,14.059,0,0,1,2.114-1.719,17,17,0,0,1,2.507-1.393,14.781,14.781,0,0,1,2.72-.918,13,13,0,0,1,2.949-.327,15.089,15.089,0,0,1,4.915.753,9.627,9.627,0,0,1,3.736,2.294,10.222,10.222,0,0,1,2.375,3.949,17.377,17.377,0,0,1,.836,5.685V45.353h5.112v5.635H22.545V45.353H27.2v-15.5a8.1,8.1,0,0,0-1.983-5.915,7.62,7.62,0,0,0-5.685-2.015,10.106,10.106,0,0,0-4.26,1,20.089,20.089,0,0,0-4.063,2.507V45.353h4.915v5.635H0V45.353H5.112V5.637H.459Z" fill="#191919"/><path d="M44.767,34.8a14.974,14.974,0,0,0,.213,2.637,13.666,13.666,0,0,0,.606,2.278,9.419,9.419,0,0,0,3.883,4.931A11.239,11.239,0,0,0,55.515,46.3a18.181,18.181,0,0,0,5.161-.738,24.793,24.793,0,0,0,5.259-2.31l2.458,4.162a26.673,26.673,0,0,1-6.718,3.407,22.243,22.243,0,0,1-7.012,1.114,17.353,17.353,0,0,1-6.373-1.146,13.594,13.594,0,0,1-5.047-3.408,15.892,15.892,0,0,1-3.309-5.636,23.514,23.514,0,0,1-1.2-7.865,22.735,22.735,0,0,1,1.016-6.864,16.29,16.29,0,0,1,3.031-5.637,14.5,14.5,0,0,1,5-3.818,16.106,16.106,0,0,1,6.948-1.409,15.579,15.579,0,0,1,6.406,1.163,11.74,11.74,0,0,1,4.194,3.08,13.4,13.4,0,0,1,2.458,4.375,25.74,25.74,0,0,1,1.163,5.014q.163,1.245.213,2.524t.049,2.49ZM54.3,21.268a10.439,10.439,0,0,0-3.719.605,7.477,7.477,0,0,0-2.7,1.737,8.469,8.469,0,0,0-1.786,2.769,16.632,16.632,0,0,0-1,3.67h17.6a16.311,16.311,0,0,0-.606-3.506,7.7,7.7,0,0,0-1.459-2.785A6.569,6.569,0,0,0,58.1,21.923,9.723,9.723,0,0,0,54.3,21.268Z" fill="#191919"/><path d="M92.155,0H102.87V45.353h4.982v5.635H96.776V48.2a11.848,11.848,0,0,1-3.8,2.6,12.283,12.283,0,0,1-4.916.934,16.975,16.975,0,0,1-6.406-1.2,14.384,14.384,0,0,1-5.145-3.506A16.279,16.279,0,0,1,73.1,41.371a22.265,22.265,0,0,1-1.229-7.684,20.748,20.748,0,0,1,1.179-7.161,15.731,15.731,0,0,1,3.343-5.5,15,15,0,0,1,5.21-3.539,18.882,18.882,0,0,1,11.272-.72,11.9,11.9,0,0,1,3.9,1.884V5.637H92.155ZM88.846,46.434a11.375,11.375,0,0,0,4.554-.8,10.506,10.506,0,0,0,3.376-2.409V24.217a10.264,10.264,0,0,0-3.769-2,15.459,15.459,0,0,0-4.358-.623,10.338,10.338,0,0,0-4.063.8,9.564,9.564,0,0,0-3.326,2.344,11.116,11.116,0,0,0-2.245,3.768,14.771,14.771,0,0,0-.819,5.112,17.75,17.75,0,0,0,.786,5.538,11.521,11.521,0,0,0,2.2,4.014,9,9,0,0,0,3.375,2.441A11.053,11.053,0,0,0,88.846,46.434Z" fill="#191919"/><path d="M114.082,34.8a14.969,14.969,0,0,0,.214,2.637,13.762,13.762,0,0,0,.6,2.278,9.426,9.426,0,0,0,3.884,4.931A11.233,11.233,0,0,0,124.83,46.3a18.176,18.176,0,0,0,5.161-.738,24.778,24.778,0,0,0,5.26-2.31l2.457,4.162a26.684,26.684,0,0,1-6.717,3.407,22.252,22.252,0,0,1-7.012,1.114,17.362,17.362,0,0,1-6.374-1.146,13.591,13.591,0,0,1-5.046-3.408,15.894,15.894,0,0,1-3.31-5.636,23.515,23.515,0,0,1-1.2-7.865,22.735,22.735,0,0,1,1.016-6.864,16.29,16.29,0,0,1,3.031-5.637,14.486,14.486,0,0,1,5-3.818,16.1,16.1,0,0,1,6.947-1.409,15.572,15.572,0,0,1,6.406,1.163,11.744,11.744,0,0,1,4.2,3.08,13.4,13.4,0,0,1,2.458,4.375,25.812,25.812,0,0,1,1.163,5.014q.164,1.245.213,2.524t.048,2.49Zm9.536-13.533a10.441,10.441,0,0,0-3.72.605,7.494,7.494,0,0,0-2.7,1.737,8.469,8.469,0,0,0-1.786,2.769,16.687,16.687,0,0,0-1,3.67h17.6a16.31,16.31,0,0,0-.607-3.506,7.686,7.686,0,0,0-1.458-2.785,6.573,6.573,0,0,0-2.523-1.835A9.718,9.718,0,0,0,123.618,21.268Z" fill="#191919"/><path d="M165.861,24.217h-6.226v-2.1a6.468,6.468,0,0,0-2.211.41,6.859,6.859,0,0,0-2.113,1.245,7.845,7.845,0,0,0-1.721,2.13,9.745,9.745,0,0,0-1.065,3.064V45.353h5.768v5.635H141.449V45.353h4.687l.032-22.676h-4.719V17.04H152.3v4.686a13.645,13.645,0,0,1,1.327-1.95,9.257,9.257,0,0,1,1.639-1.573,7.188,7.188,0,0,1,4.373-1.425h3.213q1.506,0,3.013.066Z" fill="#191919"/><path d="M187.494,47.843a17.61,17.61,0,0,1-4.275,2.949,11.971,11.971,0,0,1-5.325,1.146,12.818,12.818,0,0,1-4.572-.786,11.2,11.2,0,0,1-3.588-2.146,9.739,9.739,0,0,1-2.343-3.162,9.006,9.006,0,0,1-.835-3.834,10.708,10.708,0,0,1,.638-3.834,9.65,9.65,0,0,1,1.7-2.9,9.921,9.921,0,0,1,2.491-2.064,15.222,15.222,0,0,1,2.982-1.343,17.653,17.653,0,0,1,3.179-.722,23.969,23.969,0,0,1,3.1-.212q2.359,0,3.965.147a28.143,28.143,0,0,1,2.916.41l.034-2.785a8.513,8.513,0,0,0-.525-3.13,5.818,5.818,0,0,0-1.474-2.2,6.1,6.1,0,0,0-2.278-1.294,9.679,9.679,0,0,0-2.966-.427,19.723,19.723,0,0,0-2.949.213,22.087,22.087,0,0,0-2.638.558,18.057,18.057,0,0,0-2.26.786,10.317,10.317,0,0,0-1.754.934l-2-4.227a21.668,21.668,0,0,1,2.654-1.458,22.619,22.619,0,0,1,3.031-1.148,27.137,27.137,0,0,1,3.244-.753,19.712,19.712,0,0,1,3.261-.279,18.528,18.528,0,0,1,5.309.7,10.288,10.288,0,0,1,4,2.179,9.645,9.645,0,0,1,2.523,3.752,15.07,15.07,0,0,1,.885,5.456l-.032,16.975h3.767v5.635h-9.863Zm-8.257-1.016a10.208,10.208,0,0,0,2.425-.3,12.151,12.151,0,0,0,2.294-.8,11.94,11.94,0,0,0,2-1.18,9.142,9.142,0,0,0,1.54-1.393l.033-7.667h-7.078a12.384,12.384,0,0,0-3.227.393,7.878,7.878,0,0,0-2.524,1.147,5.305,5.305,0,0,0-1.654,1.867,5.377,5.377,0,0,0-.59,2.557,5.258,5.258,0,0,0,.491,2.343,4.574,4.574,0,0,0,1.393,1.671,6.387,6.387,0,0,0,2.146,1.015A10.291,10.291,0,0,0,179.237,46.827Z" fill="#191919"/></svg>