<svg xmlns="http://www.w3.org/2000/svg" viewBox="0 0 24 24"><title>type_and</title><path d="M0,0H24V24H0Z" fill="none"/><path d="M15.939,18.626a8.035,8.035,0,0,1-5.489,2.142c-3.038,0-5.577-1.744-5.577-4.743,0-2.08,1.233-3.536,3.374-4.681.161-.074.522-.273.7-.349C7.735,9.738,6.753,8.556,6.753,7c0-2.079,1.743-3.685,4.169-3.685A3.843,3.843,0,0,1,15.081,7.05c0,2.016-1.556,3.2-3.709,4.319l4.468,4.843a10.755,10.755,0,0,0,.921-4.843v-.547h1.644c0,.062,0,.5-.014.56a11.086,11.086,0,0,1-1.406,6l2.888,3.062H17.62Zm-9.323-2.7c0,2.191,1.88,3.349,3.959,3.349a6.009,6.009,0,0,0,4.319-1.768L9.926,12.067c-.161.074-.546.261-.683.348C7.649,13.274,6.616,14.307,6.616,15.925ZM13.4,7.087a2.315,2.315,0,0,0-2.478-2.352A2.331,2.331,0,0,0,8.446,7.1c0,1,.535,1.831,1.954,3.261C12.28,9.415,13.4,8.556,13.4,7.087Z"/></svg>